<svg width="124" height="124" viewBox="0 0 124 124" fill="none" xmlns="http://www.w3.org/2000/svg">
<path fill-rule="evenodd" clip-rule="evenodd" d="M98.2269 70.492C97.1639 75.613 92.4419 88.758 77.3749 95.871L71.3249 89.071L61.1129 99.332C55.3041 99.2543 49.592 97.8341 44.4231 95.1825C39.2542 92.5309 34.7686 88.7198 31.3169 84.047C32.4029 84.387 33.5199 84.598 34.6529 84.677C36.3249 84.707 38.1379 84.094 38.1379 81.286V53.591C38.1616 52.8789 38.0184 52.1712 37.7199 51.5243C37.4213 50.8774 36.9757 50.3093 36.4185 49.8653C35.8613 49.4213 35.208 49.1137 34.5108 48.9671C33.8136 48.8205 33.0918 48.839 32.4029 49.021C27.6769 50.11 23.8989 61.903 23.8989 61.903C23.8467 56.4578 24.9808 51.0665 27.2223 46.1037C29.4638 41.141 32.759 36.7258 36.8789 33.165C42.3014 28.4741 48.9391 25.4111 56.0269 24.329C50.8669 27.271 47.9689 32.068 47.9689 36.091C47.9689 42.568 51.8669 41.783 53.0229 40.83V78.209C53.2189 78.677 53.4759 79.119 53.7849 79.525C54.3014 80.2379 54.9806 80.8172 55.7661 81.2147C56.5516 81.6121 57.4206 81.8162 58.3009 81.81C62.2029 81.81 67.2689 77.353 67.2689 77.353V47.095C67.2689 44.017 64.9489 40.302 62.6249 39.025C62.6249 39.025 66.9249 38.263 70.2459 40.802C70.8689 40.0404 71.5312 39.3117 72.2299 38.619C79.9769 31.021 87.2699 28.857 93.3469 27.775C93.3469 27.775 82.2999 36.458 82.2999 48.107C82.2999 56.771 82.5229 77.896 82.5229 77.896C86.6209 81.853 92.7179 76.138 98.2259 70.493L98.2269 70.492Z" fill="white"/>
<path fill-rule="evenodd" clip-rule="evenodd" d="M61.617 0C27.59 0 0 27.59 0 61.617C0 95.644 27.59 123.234 61.617 123.234C95.644 123.234 123.234 95.644 123.234 61.617C123.234 27.59 95.644 0 61.617 0ZM61.617 120.77C28.949 120.77 2.465 94.286 2.465 61.617C2.469 28.95 28.953 2.466 61.621 2.47C94.289 2.47 120.769 28.954 120.769 61.622C120.769 94.29 94.285 120.774 61.617 120.774V120.77Z" fill="white"/>
</svg>
